<svg width="180" height="52" viewBox="0 0 180 52" fill="none" xmlns="http://www.w3.org/2000/svg">
<path d="M48.33 26.0003C50.4768 23.0584 53.4187 22.2235 56.7582 22.3825C58.7063 22.5018 60.4555 23.0584 61.9265 24.4101C62.4433 24.8872 62.9204 25.404 63.2782 26.0003C63.4372 26.2389 63.5167 26.3184 63.7155 26.0401C65.584 23.5752 68.1284 22.5018 71.1498 22.3825C71.5076 22.3825 71.4679 22.6211 71.5474 22.8199C72.5413 25.4437 73.5352 28.0279 74.5291 30.6517C77.0337 37.2114 79.5383 43.7314 82.0429 50.2911C82.2417 50.808 82.2417 50.8079 81.6851 50.8079C79.6178 50.8079 77.5903 50.8079 75.523 50.8079C75.1254 50.8079 75.0061 50.7284 75.0061 50.2911C75.0061 45.0036 75.0061 39.7161 75.0061 34.4285C75.0061 33.5937 74.9267 32.7588 74.6484 31.9239C74.052 30.1747 72.6606 29.141 70.8318 29.0615C67.7706 28.9025 65.7033 30.6518 65.3455 33.6732C65.266 34.2298 65.266 34.8261 65.266 35.3827C65.266 40.3522 65.266 45.2819 65.266 50.2514C65.266 50.7285 65.1467 50.8079 64.6696 50.8079C62.6421 50.7682 60.6146 50.7682 58.5473 50.8079C58.1497 50.8079 58.0702 50.7284 58.0702 50.3309C58.0702 45.0433 58.0702 39.7558 58.0702 34.4683C58.0702 33.6334 57.9907 32.7986 57.7124 31.9637C57.116 30.2144 55.6848 29.141 53.856 29.0615C50.7948 28.9025 48.6878 30.7313 48.33 33.7925C48.2505 34.4286 48.2107 35.0249 48.2107 35.661C48.2107 40.551 48.2107 45.4409 48.2107 50.3309C48.2107 50.7284 48.1312 50.8477 47.7337 50.8477C45.6664 50.808 43.599 50.8477 41.5317 50.8477C41.1739 50.8477 41.0547 50.8079 41.0547 50.4104C41.0547 41.5051 41.0547 32.56 41.0547 23.6547C41.0547 23.3367 41.0944 23.1776 41.492 23.1776C43.5991 23.2174 45.7061 23.1776 47.7734 23.1776C48.1312 23.1776 48.2107 23.2969 48.2107 23.615C48.2902 24.3306 48.33 25.0859 48.33 26.0003Z" fill="white"/>
<path d="M94.4859 42.4195C95.0028 41.028 95.4401 39.7558 95.9172 38.5234C100.489 25.8811 105.061 13.1989 109.633 0.556591C109.792 0.159033 109.951 0 110.388 0C112.615 0.0397558 114.881 0 117.107 0C117.266 0 117.465 0 117.703 0C117.385 0.914384 117.067 1.74925 116.749 2.62387C110.786 18.4865 104.822 34.349 98.8591 50.2116C98.7 50.6489 98.5013 50.7682 98.064 50.7682C95.6786 50.7284 93.333 50.7682 90.9477 50.7682C90.6296 50.7682 90.4706 50.6887 90.3513 50.3706C86.9721 41.4653 83.5928 32.5203 80.1738 23.615C79.9751 23.1379 79.9751 23.0981 80.4919 23.0981C82.7977 23.0981 85.1036 23.0981 87.4094 23.0981C87.7672 23.0981 87.8865 23.2174 88.0057 23.5355C90.1526 29.7374 92.2994 35.9393 94.4462 42.1014C94.4064 42.1809 94.4064 42.2207 94.4859 42.4195Z" fill="#FFCB52"/>
<path d="M11.8726 51.5235C8.89092 51.5235 6.34656 51.0862 4.08048 49.6948C2.29146 48.6214 1.01926 47.1107 0.0651236 45.2421C-0.0541439 44.9638 -0.0143784 44.8843 0.224157 44.7253C2.09268 43.6917 3.92145 42.658 5.78997 41.5846C5.98875 41.4653 6.10801 41.3858 6.22728 41.7039C7.14166 44.0892 9.08971 45.0434 11.6341 45.0036C12.469 45.0036 13.3038 44.9241 14.0989 44.5663C14.8543 44.2085 15.2916 43.6121 15.3314 42.7773C15.3711 41.9821 14.9338 41.4653 14.2977 41.1075C13.0653 40.4317 11.7534 40.0341 10.4414 39.6763C8.89093 39.239 7.30068 38.8017 5.82972 38.1259C3.56364 37.0922 1.81439 35.502 1.29757 32.9178C0.542208 29.0218 1.93365 25.5232 5.82972 23.5752C10.1233 21.4681 16.4445 21.8657 20.2611 25.722C20.8972 26.3979 21.4538 27.1135 21.9706 27.9086C22.0899 28.1074 22.0898 28.2266 21.8513 28.3459C19.9828 29.3398 18.154 30.3735 16.2855 31.3674C15.9674 31.5661 15.9277 31.3276 15.8084 31.1288C14.5363 28.7037 12.0316 28.3459 10.2029 28.8627C9.76555 28.982 9.36799 29.2205 9.01018 29.5386C8.13556 30.3735 8.21508 31.6059 9.16922 32.2817C10.1234 32.9576 11.2365 33.3154 12.3497 33.6334C14.0989 34.1105 15.8879 34.5478 17.5577 35.2634C21.1357 36.6946 23.044 39.7558 22.5669 43.8507C22.1296 47.6672 19.625 49.655 16.2457 50.8477C15.6097 51.0465 14.9736 51.2055 14.2977 51.3248C13.4231 51.444 12.4689 51.5633 11.8726 51.5235Z" fill="white"/>
<path d="M136.706 51.5235C133.088 51.5235 130.504 51.0465 128.198 49.5755C126.489 48.5021 125.296 46.9914 124.382 45.2421C124.262 45.0036 124.302 44.9241 124.501 44.8048C126.369 43.7712 128.278 42.6978 130.146 41.6243C130.345 41.5051 130.464 41.5051 130.544 41.7436C131.498 44.1687 133.446 45.0433 135.911 45.0433C136.706 45.0433 137.541 44.9638 138.296 44.6458C139.29 44.2482 139.807 43.3736 139.608 42.3797C139.489 41.7038 138.972 41.3063 138.376 40.9882C137.223 40.3919 135.99 39.9943 134.718 39.6763C133.247 39.2787 131.736 38.8414 130.345 38.2451C127.96 37.2115 126.131 35.5815 125.574 32.9178C124.819 29.0615 126.131 25.4437 130.186 23.615C134.877 21.5079 139.409 21.8657 143.623 24.9269C144.697 25.722 145.492 26.7159 146.207 27.8291C146.406 28.1074 146.367 28.2266 146.048 28.3857C144.259 29.3398 142.47 30.2939 140.681 31.2878C140.363 31.4866 140.244 31.4071 140.085 31.0891C138.892 28.823 136.507 28.3061 134.519 28.823C134.201 28.9025 133.923 29.0615 133.645 29.2205C132.372 30.0156 132.372 31.6059 133.645 32.3612C134.877 33.1166 136.269 33.5141 137.66 33.8322C139.051 34.19 140.403 34.6273 141.755 35.1044C144.538 36.138 147.082 38.6824 146.963 42.6978C146.883 45.918 145.532 48.2636 142.749 49.814C140.602 51.0862 138.256 51.5235 136.706 51.5235Z" fill="#FFCB52"/>
<path d="M27.5352 36.9332C27.5352 32.4805 27.5352 28.0278 27.5352 23.5752C27.5352 23.1776 27.6544 23.0584 28.052 23.0981C30.1193 23.1379 32.2263 23.0981 34.2936 23.0981C34.6117 23.0981 34.731 23.1776 34.731 23.5354C34.731 32.4805 34.731 41.4256 34.731 50.3706C34.731 50.6887 34.6514 50.7682 34.3334 50.7682C32.2263 50.7682 30.1193 50.7682 28.052 50.7682C27.6942 50.7682 27.5749 50.6887 27.5749 50.2911C27.5351 45.8385 27.5352 41.3858 27.5352 36.9332Z" fill="white"/>
<path d="M119.61 36.9729C119.61 41.4653 119.61 45.918 119.61 50.4104C119.61 50.6887 119.531 50.7682 119.292 50.7682C117.146 50.7682 114.999 50.7682 112.852 50.7682C112.534 50.7682 112.494 50.6489 112.494 50.3706C112.494 44.4073 112.494 38.4836 112.494 32.5203C112.494 32.3215 112.534 32.1227 112.613 31.9239C113.687 29.1013 114.8 26.3183 115.873 23.4957C115.993 23.2174 116.112 23.0584 116.47 23.0981C117.344 23.1379 118.179 23.1379 119.054 23.0981C119.491 23.0981 119.65 23.2174 119.65 23.6547C119.61 28.1074 119.61 32.5203 119.61 36.9729Z" fill="#FFCB52"/>
<path fill-rule="evenodd" clip-rule="evenodd" d="M172.844 23.5354V26.1991C172.606 26.1593 172.526 26.0003 172.486 25.881C171.93 25.3244 171.373 24.7679 170.737 24.3305C167.716 22.2632 164.416 21.9054 160.957 22.6608C156.823 23.6149 153.96 26.2388 152.012 29.8964C150.422 32.878 150.183 36.0983 150.581 39.4378C151.336 45.4011 156.743 51.9608 164.535 51.5235C167.159 51.3645 169.544 50.6489 171.532 48.8996C171.751 48.7009 171.96 48.4921 172.173 48.2784C172.387 48.0648 172.606 47.8461 172.844 47.6274C172.844 47.9337 172.849 48.24 172.853 48.5448C172.862 49.1499 172.871 49.7492 172.844 50.3308C172.844 50.6886 172.963 50.7682 173.282 50.7682C173.968 50.7682 174.658 50.7638 175.352 50.7594C176.748 50.7505 178.155 50.7416 179.563 50.7682C179.961 50.7682 180 50.6091 180 50.2911V23.5354C180 23.1776 179.921 23.0981 179.563 23.0981H173.321C172.963 23.0981 172.844 23.1776 172.844 23.5354ZM172.845 36.9729C172.885 32.4407 169.705 29.1807 165.212 29.1807C160.919 29.0615 157.619 32.401 157.539 36.7343C157.5 41.1075 160.442 44.6855 165.173 44.7253C169.585 44.765 172.845 41.4653 172.845 36.9729Z" fill="#FFCB52"/>
</svg>
